<svg width="24" height="24" viewBox="0 0 24 24" fill="none" xmlns="http://www.w3.org/2000/svg">
<path d="M11.5 2C8.98044 2 6.56408 3.00089 4.78249 4.78249C3.00089 6.56408 2 8.98044 2 11.5C2 14.0196 3.00089 16.4359 4.78249 18.2175C6.56408 19.9991 8.98044 21 11.5 21C14.0196 21 16.4359 19.9991 18.2175 18.2175C19.9991 16.4359 21 14.0196 21 11.5C21 8.98044 19.9991 6.56408 18.2175 4.78249C16.4359 3.00089 14.0196 2 11.5 2V2ZM3.17167 12.2178H5.82111C5.86333 13.1783 5.99739 14.1326 6.22222 15.0678H3.94222C3.51705 14.1715 3.25607 13.2062 3.17167 12.2178V12.2178ZM12.2178 6.51778V3.25611C13.235 3.64268 14.0709 4.39571 14.5611 5.36722C14.7775 5.7335 14.9686 6.11456 15.1311 6.50722L12.2178 6.51778V6.51778ZM15.6167 7.94278C15.8616 8.87483 16.0072 9.83011 16.0494 10.7928H12.2178V7.94278H15.6167V7.94278ZM10.7822 3.25611V6.51778H7.86889C8.03172 6.12479 8.2222 5.74384 8.43889 5.37778C8.92705 4.40229 9.76318 3.64525 10.7822 3.25611V3.25611ZM10.7822 7.94278V10.7928H6.96111C7.00333 9.83011 7.149 8.87483 7.39389 7.94278H10.7822V7.94278ZM5.82111 10.7822H3.17167C3.25607 9.79379 3.51705 8.82852 3.94222 7.93222H6.22222C5.99696 8.86707 5.86263 9.82151 5.82111 10.7822V10.7822ZM6.96111 12.2178H10.7822V15.0678H7.39389C7.14904 14.1358 7.00396 13.1804 6.96111 12.2178V12.2178ZM10.7928 16.44V19.7017C9.77556 19.3151 8.93969 18.5621 8.44944 17.5906C8.23275 17.2245 8.04228 16.8435 7.87944 16.4506L10.7928 16.44V16.44ZM12.2178 19.7017V16.4928H15.1311C14.9683 16.8858 14.7778 17.2667 14.5611 17.6328C14.0709 18.6043 13.235 19.3573 12.2178 19.7439V19.7017V19.7017ZM12.2178 15.015V12.165H16.0389C15.996 13.1277 15.851 14.083 15.6061 15.015H12.2178ZM17.1894 12.165H19.8389C19.7545 13.1534 19.4935 14.1187 19.0683 15.015H16.7778C16.9994 14.0967 17.1335 13.1604 17.1789 12.2178L17.1894 12.165V12.165ZM17.1894 10.74C17.1411 9.79666 17.0033 8.86005 16.7778 7.94278H19.0578C19.4832 8.84 19.7439 9.80478 19.8283 10.7928L17.1894 10.74ZM18.245 6.51778H16.3556C16.0137 5.55754 15.5182 4.65918 14.8883 3.85778C16.2018 4.44739 17.3428 5.36305 18.2028 6.51778H18.245V6.51778ZM8.11167 3.85778C7.48184 4.65918 6.98632 5.55754 6.64444 6.51778H4.79722C5.65721 5.36305 6.79815 4.44739 8.11167 3.85778V3.85778ZM4.78667 16.5244H6.64444C6.98632 17.4847 7.48184 18.383 8.11167 19.1844C6.79452 18.586 5.65322 17.6591 4.79722 16.4928L4.78667 16.5244V16.5244ZM14.8778 19.1844C15.5076 18.383 16.0031 17.4847 16.345 16.5244H18.2028C17.3375 17.6637 16.1971 18.5645 14.8883 19.1422L14.8778 19.1844Z" fill="black"/>
</svg>
