<svg width="24" height="24" viewBox="0 0 24 24" fill="none" xmlns="http://www.w3.org/2000/svg">
<path d="M19.37 8.27543V8.77543C19.37 13.8104 15.55 19.5804 8.56 19.5804C6.49647 19.5849 4.47677 18.9852 2.75 17.8554C3.04989 17.8962 3.35239 17.9145 3.655 17.9104C5.3655 17.9151 7.02791 17.3446 8.375 16.2904C7.58034 16.2787 6.80958 16.0168 6.17228 15.542C5.53498 15.0672 5.06355 14.4035 4.825 13.6454C5.06171 13.6956 5.30303 13.7208 5.545 13.7204C5.88288 13.7205 6.21923 13.6751 6.545 13.5854C5.68429 13.4139 4.90996 12.9485 4.3545 12.269C3.79904 11.5895 3.49698 10.7381 3.5 9.86043V9.81043C4.0266 10.1046 4.61698 10.2659 5.22 10.2804C4.4173 9.75221 3.84659 8.93742 3.62448 8.00254C3.40238 7.06765 3.54564 6.08323 4.025 5.25043C4.98013 6.42518 6.17179 7.38576 7.52252 8.06974C8.87325 8.75372 10.3528 9.14578 11.865 9.22043C11.7901 8.93664 11.7548 8.64388 11.76 8.35043C11.7318 7.57489 11.9434 6.80951 12.3659 6.15851C12.7883 5.50752 13.4011 5.00254 14.1209 4.71234C14.8407 4.42214 15.6324 4.36083 16.3882 4.53674C17.1441 4.71265 17.8273 5.11725 18.345 5.69543C19.1959 5.52372 20.0121 5.21108 20.76 4.77043C20.4764 5.66611 19.873 6.42608 19.065 6.90543C19.8198 6.80143 20.5557 6.58925 21.25 6.27543C20.7468 7.04825 20.1102 7.72546 19.37 8.27543V8.27543Z" stroke="black" stroke-width="1.5" stroke-linecap="round" stroke-linejoin="round"/>
</svg>
